# xmcd
#
# Track frame offsets: 
#        150
#        19077
#        34315
#        51822
#        68915
#        92195
#        107695
#        136942
#        160290
#        177300
#        222122
#        244385
#
# Disc length: 3408 seconds
#
# Revision: 0
# Processed by: cddbd v1.5.2PL0 Copyright (c) Steve Scherf et al.
# Submitted via: ExactAudioCopy v0.99pb4
#
DISCID=a90d4e0c
DTITLE=Little Sammy Davis and Midnight Slim  - Ten Years and Forty Day
DTITLE=s
DYEAR=2008
DGENRE=Blues
TTITLE0=Fine Looking Woman
TTITLE1=Done Got Over
TTITLE2=Since You Been Gone
TTITLE3=I'm Going
TTITLE4=Hear My Train Coming
TTITLE5=Forty Days and Forty Nights
TTITLE6=Saturday Night Fish Fry
TTITLE7=Early in the Morning
TTITLE8=Fat Rat
TTITLE9=The Claw
TTITLE10=Sentenced to the Sewer
TTITLE11=She's Not Another Woman
EXTD=
EXTT0=
EXTT1=
EXTT2=
EXTT3=
EXTT4=
EXTT5=
EXTT6=
EXTT7=
EXTT8=
EXTT9=
EXTT10=
EXTT11=
PLAYORDER=
